Coordinates
version=1
nRows=13
nColumns=22
inDegrees=yes

Units are S.I. units (second, meters, Newtons, ...)
If the header above contains a line with 'inDegrees', this indicates whether rotational values are in degrees (yes) or radians (no).

endheader
time	pelvis_tilt	pelvis_list	pelvis_rotation	pelvis_tx	pelvis_ty	pelvis_tz	hip_flexion_r	hip_adduction_r	hip_rotation_r	knee_angle_r	ankle_angle_r	subtalar_angle_r	hip_flexion_l	hip_adduction_l	hip_rotation_l	knee_angle_l	ankle_angle_l	subtalar_angle_l	lumbar_extension	lumbar_bending	lumbar_rotation
      3.97000000	      1.64236420	     -0.24477594	    164.58358341	      0.01823843	      0.99335517	     -0.77065709	     -1.14610353	     -9.96068488	     -5.28463180	    -51.18487730	     -6.31142137	     19.38245472	     20.89262977	      0.05609288	    -28.25777081	    -21.14894002	      3.22567359	    -15.61822032	     -1.40418399	     -8.41694719	      2.10083579
      3.98000000	      1.50147562	     -0.38988155	    165.00100090	      0.00820733	      0.99463118	     -0.76828789	      0.43516330	    -10.33788967	     -5.14989545	    -53.53756752	     -4.88040125	     17.70349144	     20.11734921	      0.73892612	    -27.88364546	    -20.87457612	      3.64779431	    -15.59390057	     -1.62119480	     -8.44058462	      1.73547214
      3.99000000	      1.39346646	     -0.52380485	    165.46911474	     -0.00166481	      0.99582817	     -0.76576613	      2.03449085	    -10.68250476	     -5.07343210	    -55.64867387	     -3.26367135	     15.92597150	     19.35589391	      1.41501049	    -27.48057323	    -20.55131177	      4.03788283	    -15.53821843	     -1.80651185	     -8.42961185	      1.32548059
      4.00000000	      1.31125692	     -0.64572516	    166.00356527	     -0.01139920	      0.99694617	     -0.76307077	      3.62689004	    -11.00347233	     -5.07696376	    -57.49625210	     -1.61622593	     14.17506430	     18.60768700	      2.08447288	    -27.03513329	    -20.19794182	      4.39798683	    -15.44696546	     -1.96584723	     -8.38922236	      0.86894776
      4.01000000	      1.25002799	     -0.75361986	    166.61680754	     -0.02101457	      0.99799641	     -0.76019594	      5.19111082	    -11.30106239	     -5.16299931	    -59.06258659	     -0.07972578	     12.58683598	     17.86554559	      2.74769435	    -26.52834876	    -19.81557923	      4.72918416	    -15.31879962	     -2.10569348	     -8.32341532	      0.36136717
      4.02000000	      1.20067451	     -0.83900673	    167.31103765	     -0.03052010	      0.99898782	     -0.75716070	      6.70664234	    -11.56410904	     -5.31963353	    -60.34028695	      1.24586453	     11.23334928	     17.12098764	      3.39030887	    -25.96685431	    -19.41945572	      5.04043248	    -15.15699500	     -2.23720597	     -8.23008909	     -0.19899426
      4.03000000	      1.16304911	     -0.89960188	    168.08539454	     -0.03991727	      0.99992574	     -0.75398315	      8.16754497	    -11.78075288	     -5.52448492	    -61.32541488	      2.31151373	     10.17775990	     16.36809961	      4.01016729	    -25.33842691	    -18.99904564	      5.32929323	    -14.97364795	     -2.35924869	     -8.11011152	     -0.79931530
      4.04000000	      1.13071931	     -0.93102274	    168.93145315	     -0.04917811	      1.00080246	     -0.75070833	      9.57161158	    -11.93597033	     -5.74843905	    -62.03048374	      3.12105043	      9.42986906	     15.60950827	      4.59344015	    -24.64388839	    -18.57785436	      5.59404593	    -14.78500326	     -2.48552844	     -7.96783766	     -1.42706784
      4.05000000	      1.11678193	     -0.93368374	    169.83982983	     -0.05834254	      1.00161036	     -0.74735128	     10.92691713	    -12.02069032	     -5.96947055	    -62.45120194	      3.70244699	      9.03326457	     14.84243450	      5.14061187	    -23.89601956	    -18.12374587	      5.81839656	    -14.63147007	     -2.59053906	     -7.79866431	     -2.07338420
      4.06000000	      1.09874823	     -0.90604375	    170.78305401	     -0.06736511	      1.00234042	     -0.74399174	     12.22664847	    -12.02220012	     -6.14776476	    -62.61188390	      4.11462077	      8.78443695	     14.06470896	      5.63558465	    -23.11419132	    -17.68135311	      6.06288442	    -14.47316583	     -2.70666015	     -7.61324408	     -2.70762082
      4.07000000	      1.09386773	     -0.87411567	    171.75076482	     -0.07629260	      1.00295470	     -0.74062601	     13.49669574	    -11.96876852	     -6.26683138	    -62.52775720	      4.42098645	      8.74478469	     13.28779981	      6.10525205	    -22.31758150	    -17.22842927	      6.31572595	    -14.38289514	     -2.80062507	     -7.43425416	     -3.32627659
      4.08000000	      1.09253860	     -0.81637510	    172.74251016	     -0.08515167	      1.00349087	     -0.73726509	     14.71471519	    -11.83736086	     -6.32995511	    -62.19443484	      4.64410988	      8.78984495	     12.49421493	      6.53128312	    -21.47308779	    -16.75911385	      6.53664260	    -14.29140426	     -2.88560290	     -7.23900730	     -3.92596506
      4.09000000	      1.09139050	     -0.74695661	    173.74978074	     -0.09396560	      1.00393184	     -0.73390528	     15.88201660	    -11.65211923	     -6.33198882	    -61.63136537	      4.86163847	      8.89050762	     11.68518238	      6.92483806	    -20.60385092	    -16.28022505	      6.75950720	    -14.21815967	     -2.96136075	     -7.04237483	     -4.50133858
